<svg id="Capa_1" enable-background="new 0 0 512.016 512.016" height="512" viewBox="0 0 512.016 512.016" width="512" xmlns="http://www.w3.org/2000/svg"><path fill="blue" d="m256.008 0c-110.312 0-200.057 89.745-200.057 200.056 0 44.487 10.222 88.427 30.382 130.598 15.989 33.446 38.224 65.823 66.087 96.231 47.228 51.542 93.987 79.455 95.955 80.618l7.633 4.512 7.633-4.512c1.968-1.163 48.728-29.075 95.955-80.618 27.863-30.408 50.098-62.786 66.087-96.231 20.16-42.171 30.382-86.111 30.382-130.598-.001-110.311-89.746-200.056-200.057-200.056zm142.824 317.263c-14.612 30.694-35.059 60.543-60.771 88.717-33.447 36.65-67.328 61-82.062 70.813-14.625-9.725-48.089-33.755-81.46-70.174-25.859-28.222-46.43-58.133-61.139-88.903-18.213-38.099-27.448-77.686-27.448-117.659-.001-93.77 76.286-170.057 170.056-170.057s170.057 76.287 170.057 170.056c-.001 39.815-9.163 79.249-27.233 117.207z"/><path d="m344.615 132.663 20.335-20.335-21.213-21.213-20.335 20.335c-14.961-11.407-32.883-19.116-52.394-21.754v-28.707h-30v28.707c-19.511 2.638-37.433 10.347-52.394 21.754l-20.335-20.335-21.213 21.213 20.335 20.335c-11.407 14.961-19.116 32.883-21.754 52.394h-28.707v30h28.706c2.638 19.511 10.347 37.433 21.754 52.394l-20.335 20.335 21.213 21.213 20.335-20.335c14.961 11.407 32.882 19.116 52.394 21.754v28.707h30v-28.707c19.511-2.638 37.433-10.347 52.394-21.754l20.335 20.335 21.213-21.213-20.335-20.335c11.407-14.961 19.116-32.883 21.754-52.394h28.706v-30h-28.706c-2.638-19.512-10.347-37.433-21.753-52.394zm-88.607 148.768c-44.87 0-81.375-36.505-81.375-81.375s36.504-81.375 81.375-81.375 81.375 36.504 81.375 81.375-36.505 81.375-81.375 81.375z"/><path d="m256.008 148.682c-28.328 0-51.375 23.046-51.375 51.375s23.046 51.375 51.375 51.375 51.375-23.047 51.375-51.375-23.047-51.375-51.375-51.375zm0 72.749c-11.786 0-21.375-9.589-21.375-21.375s9.588-21.375 21.375-21.375 21.375 9.588 21.375 21.375-9.589 21.375-21.375 21.375z"/></svg>